inDegrees=no
num_controls=7
num_derivatives=13
num_iterations=99
num_multipliers=7
num_parameters=0
num_slacks=7
num_states=26
objective=0.516840
objective_accelerations=0.040181
objective_balance=0.002299
objective_effort=0.044420
objective_height=0.418329
objective_ligament=0.011611
solver_duration=1313.299328
status=Solve_Succeeded
success=true
DataType=double
version=3
OpenSimVersion=4.5
endheader
time	/jointset/ground_pelvis/pelvis_tilt/value	/jointset/ground_pelvis/pelvis_tx/value	/jointset/ground_pelvis/pelvis_ty/value	/jointset/hip_l/hip_flexion_l/value	/jointset/hip_l/hip_adduction_l/value	/jointset/hip_l/hip_rotation_l/value	/jointset/back/lumbar_extension/value	/jointset/patellofemoral_l/patellar_flexion_l/value	/jointset/knee_l/knee_flexion_l/value	/jointset/knee_l/knee_adduction_l/value	/jointset/knee_l/knee_rotation_l/value	/jointset/ankle_l/ankle_angle_l/value	/jointset/subtalar_l/subtalar_angle_l/value	/jointset/ground_pelvis/pelvis_tilt/speed	/jointset/ground_pelvis/pelvis_tx/speed	/jointset/ground_pelvis/pelvis_ty/speed	/jointset/hip_l/hip_flexion_l/speed	/jointset/hip_l/hip_adduction_l/speed	/jointset/hip_l/hip_rotation_l/speed	/jointset/back/lumbar_extension/speed	/jointset/patellofemoral_l/patellar_flexion_l/speed	/jointset/knee_l/knee_flexion_l/speed	/jointset/knee_l/knee_adduction_l/speed	/jointset/knee_l/knee_rotation_l/speed	/jointset/ankle_l/ankle_angle_l/speed	/jointset/subtalar_l/subtalar_angle_l/speed	/forceset/tau_hip_flexion_l	/forceset/tau_hip_adduction_l	/forceset/tau_hip_rotation_l	/forceset/tau_knee_flexion_l	/forceset/tau_ankle_angle_l	/forceset/tau_subtalar_angle_l	/forceset/tau_lumbar_extension	lambda_cid13_p0	lambda_cid13_p1	lambda_cid13_p2	lambda_cid13_p3	lambda_cid13_p4	lambda_cid13_p5	lambda_cid14_p0	/jointset/ground_pelvis/pelvis_tilt/accel	/jointset/ground_pelvis/pelvis_tx/accel	/jointset/ground_pelvis/pelvis_ty/accel	/jointset/hip_l/hip_flexion_l/accel	/jointset/hip_l/hip_adduction_l/accel	/jointset/hip_l/hip_rotation_l/accel	/jointset/back/lumbar_extension/accel	/jointset/patellofemoral_l/patellar_flexion_l/accel	/jointset/knee_l/knee_flexion_l/accel	/jointset/knee_l/knee_adduction_l/accel	/jointset/knee_l/knee_rotation_l/accel	/jointset/ankle_l/ankle_angle_l/accel	/jointset/subtalar_l/subtalar_angle_l/accel	gamma_cid13_p0	gamma_cid13_p1	gamma_cid13_p2	gamma_cid13_p3	gamma_cid13_p4	gamma_cid13_p5	gamma_cid14_p0
1	-0.1628177381372216	-0.09471473576480861	0.7237155410712485	1.270392111806241	-0.327346656467315	-0.002515328921960664	-0.9599276591686763	1.166469765299834	1.166469765299815	-0.07800719795893221	-0.1744992113101523	0.1377850722663671	0.01075978548108938	0.1031546653489944	0.02450046002007954	0.06889505667600099	-0.2945635091127821	-0.002089343332066756	-0.06082540961959165	-0.002096609841347745	-0.1744016308277702	-0.1744016308277721	-0.008815875241095792	-0.0006595823207173871	0.007072184274625925	0.001093697127283193	-0.4005877722569362	0.0135740770008384	-0.005016079718727114	-0.2967833475495197	0.1121795038476331	0.04333265237084716	0.4364110486080162	-14.17738482963215	-16.22658902904441	2.006523356058715	5.027968030317398	-786.8710623245935	-71.46092889315115	-1.664390481089332	0.9640343013978608	0.1787569491951456	1.255410755699055	-4.588618015238842	-0.002101544165835548	-1.401974851834158	0.3554366183722659	-4.156138940122546	-4.156138940122561	-0.1968518566624054	0.01921940745804517	-0.7995977743094355	-0.2706549389258749	-9.487274664276844e-09	-1.082132031728512e-08	4.492803224471431e-08	3.117093375106959e-09	-2.022564141201791e-08	4.970097749641114e-08	-1.142810665156467e-08
1.01	-0.1617382366929299	-0.0944607334918811	0.7244670516582303	1.267217807565075	-0.3273669592877173	-0.003193852337316713	-0.9599303197327856	1.16451842713044	1.16451842713052	-0.07810387560819047	-0.1745040852289278	0.1378160410088859	0.01075807303871716	0.1127630746640803	0.02630797849708167	0.08139659290130014	-0.3402963728009533	-0.001956047532370864	-0.07487118122926614	0.001566967657018599	-0.2158477338652662	-0.2158477338652682	-0.01050489144704497	-0.0003031991328767308	-0.0008735915644374716	-0.001417079918315872	-0.3997914816748983	0.01368313979926628	-0.00504612299104771	-0.2964637628113752	0.1120840508804455	0.04347953413290787	0.4360319285262524	-14.16946263410516	-16.30496982961123	2.034100295857258	4.869028791450798	-786.4416675430272	-71.58331805352221	-1.704293035239109	0.9618604453126133	0.1829486760535836	1.245949535277459	-4.565477746761218	0.02331868348062601	-1.404677431700904	0.3721889121429062	-4.13610275792914	-4.136102757928932	-0.1527194437446617	0.04566087086462128	-0.791341961817338	-0.2384266187075055	-1.46827642721141e-08	-1.827210432954918e-08	5.470863668853685e-08	8.886690673240344e-09	-2.667427371696259e-08	5.588939722851705e-08	-1.422040158622137e-08
1.02	-0.1605621279157571	-0.09418841615836286	0.7253432625033325	1.263586203246821	-0.3273854744418327	-0.004012593291972835	-0.9598962704026841	1.162153176576193	1.162153176576359	-0.0782170020077259	-0.1745050326965826	0.1377676970983921	0.01073182531962257	0.1224761319291639	0.02816347213822102	0.09383510829995001	-0.3860235245352943	-0.001731810074950239	-0.08886891748561557	0.005245369018373841	-0.2571841077974096	-0.2571841077974116	-0.01210562530033572	0.0001257079116673762	-0.008790346328006991	-0.003813358217137163	-0.3989951910927088	0.01379220259775851	-0.005076166263330202	-0.2961441780732284	0.1119885979132442	0.0436264158950368	0.4356528084446161	-14.17213247287428	-16.38099649217943	2.060731371744752	4.749246302270579	-786.1534667853426	-71.69728021905399	-1.753179357748289	0.9849638913971371	0.188351982022716	1.242806590369229	-4.587475624472816	0.01608678737908882	-1.392367781169157	0.3584013909698927	-4.134193119052032	-4.134193119052052	-0.1791953861307516	0.03372417879870093	-0.7937935592104761	-0.2477551895702833	-1.99501644339803e-08	-2.935524115598019e-08	6.655408382399021e-08	1.289607093953787e-08	-3.279918559081532e-08	6.194237763119571e-08	-1.79081012914361e-08
1.03	-0.1592886152444611	-0.09389709112944251	0.7263435492717256	1.259497372017903	-0.3274013604561527	-0.004971085160577523	-0.9598237588594775	1.159375152165637	1.159375152165728	-0.07834579352257957	-0.1745014691524866	0.1376405963873908	0.01068220763484863	0.1322208882275039	0.03013118162220817	0.1062127975265884	-0.4317436719815084	-0.001438665352153442	-0.1028275772186178	0.009418009391412067	-0.2983990636504675	-0.2983990636504697	-0.01364661890609829	0.0005804267111114017	-0.01659817798076425	-0.006090826561281782	-0.3996335682455922	0.01408148269725989	-0.005118380175348445	-0.2952843173188677	0.1117357664637556	0.04392641313001557	0.4369289572443703	-14.25723899193411	-16.51847744852712	2.107885876511141	4.276223200363717	-786.7311046870983	-71.84002231494061	-1.811353161427856	0.9684025385703573	0.2054310301921972	1.233825089831228	-4.564429815562586	0.03693434861590983	-1.397353317930726	0.4708558251554338	-4.111885875522663	-4.111885875522518	-0.1406549663209855	0.05037777575494998	-0.769537964894484	-0.2148423195063583	-2.521829837701005e-08	-4.047544280704558e-08	7.842060078282757e-08	1.688748980755134e-08	-3.892079419496304e-08	6.799397599990062e-08	-2.160493778002387e-08
1.04	-0.1579178208022959	-0.09358519888596083	0.7274673279325901	1.254951310212355	-0.3274141138164706	-0.006069111276185779	-0.9597046888195907	1.156185630385129	1.156185630385145	-0.07848981569717137	-0.1744935520113916	0.1374363653605458	0.01061039533409903	0.1419324861066017	0.03227691505049005	0.1185334867940936	-0.4774696398623797	-0.001105279273932006	-0.1167757668942198	0.01455706835186354	-0.3394835817871303	-0.3394835817871326	-0.01515175725274007	0.000996427320064599	-0.02421640949696838	-0.008252281412216256	-0.4002719453984023	0.01437076279683262	-0.005160594087368984	-0.294424456564504	0.1114829350142719	0.04422641036507791	0.438205106044178	-14.35307394684259	-16.65360301615365	2.1541201742123	3.840086718994203	-787.4537376244684	-71.97494805453084	-1.879166410312669	0.9783322075484338	0.2239567708818251	1.231406598542647	-4.588639711404252	0.02413505846396534	-1.390273769689169	0.5516851084523893	-4.108105575773019	-4.10810557577303	-0.1720243343066357	0.02598054070044103	-0.7558735318996136	-0.2245524909282319	-2.790006325964308e-08	-4.954227085976422e-08	8.864683387565516e-08	1.696385800547777e-08	-4.264021315383506e-08	7.078777897599787e-08	-2.445333536269429e-08
1.05	-0.156450110136839	-0.09325098921549016	0.7287139472092191	1.249948174476104	-0.3274233823311931	-0.007306455476291077	-0.9595296837969477	1.15258600095351	1.152586000953565	-0.07864888358328878	-0.1744817486981477	0.1371567839822535	0.01051744825400959	0.1516001817752898	0.03459175112229671	0.1307727097852584	-0.5231362688288672	-0.0007444700316226678	-0.1306841556823301	0.0205773390891871	-0.3804117076469707	-0.3804117076469711	-0.01666621839668248	0.001351257977349109	-0.03167892261607727	-0.01032483489190136	-0.4001610189449542	0.01461316921475124	-0.005210956223337632	-0.2935406034479754	0.1114263187487738	0.04453375309778993	0.4387952218485647	-14.34650847539333	-16.81104201451064	2.205275289083116	3.377203983347967	-787.5265890395374	-72.14740892563871	-1.957042644995682	0.9595660788338228	0.2392602207843325	1.217522043825001	-4.552492285124909	0.0426426198405911	-1.389809325184396	0.6472084929230504	-4.080571074053971	-4.080571074053596	-0.1418327361505065	0.03831036087531735	-0.7383020131616129	-0.1967638043059239	-3.050100410913872e-08	-5.854493098753453e-08	9.882180809766997e-08	1.691788086996399e-08	-4.628456368629222e-08	7.347977584607616e-08	-2.72752192295548e-08
1.06	-0.1548860069482478	-0.09289282854521037	0.730082427094645	1.244489008891005	-0.3274289250009538	-0.008682621142602959	-0.9592904739796198	1.148578009266697	1.148578009266802	-0.07882323122716704	-0.174466781871826	0.1368032051105222	0.01040414423355958	0.1612109907362001	0.03706711501231435	0.1429056085533608	-0.5686756096295045	-0.0003601102802772607	-0.1445400601429378	0.02739802728856841	-0.4211560328253898	-0.4211560328253883	-0.0182077088091235	0.001629129939948188	-0.03901590818498814	-0.01232366948427437	-0.4000500924915084	0.01485557563272507	-0.005261318359355404	-0.2926567503314442	0.1113697024832919	0.04484109583057173	0.4393853376529374	-14.35062039660548	-16.9662873503854	2.255710493165893	2.948001819682766	-787.7455488085056	-72.31358829414971	-2.045424625000315	0.9669548659925654	0.2560623345242115	1.210141753930217	-4.563182078234219	0.0288451602711131	-1.379776904188734	0.7117686008638306	-4.071345439488761	-4.071345439488773	-0.1774301880064081	0.01058880176323368	-0.730768021859734	-0.209808713465792	-3.240949725904806e-08	-6.759319859447319e-08	1.043576100985784e-07	1.615068823439419e-08	-4.841370664014494e-08	7.41563206350607e-08	-2.948690564291203e-08
1.07	-0.1532266514060234	-0.09250911999600399	0.7315715568887458	1.238575899404491	-0.32743052096568	-0.01019704864705069	-0.9589783863336364	1.144163601999177	1.14416360199929	-0.07901317391968241	-0.1744494908849449	0.1363767428489252	0.01027115265309468	0.170591333430879	0.03970055012136087	0.1548876647219656	-0.6138410509996752	4.578368791783701e-05	-0.1583384834252538	0.03522259176780004	-0.4616833982866557	-0.4616833982866498	-0.01978150384139493	0.001810169202181657	-0.04626889802874625	-0.01426599592456789	-0.3996042150117875	0.01509513305130184	-0.005320670011224612	-0.2916181010037573	0.1113706417060614	0.04518909479395736	0.4397710147529728	-14.30926299643935	-17.15044569166444	2.314518463545757	2.461861631779726	-787.575574424176	-72.51752269946158	-2.144827681278959	0.9132535352828549	0.2708804511866578	1.187324595306655	-4.477443700792488	0.04718738723100485	-1.378861134779531	0.8482638501256849	-4.037122376620305	-4.037122376619601	-0.1474745885387119	0.01905177054274067	-0.721421643109752	-0.1851473138081227	-3.428115808451131e-08	-7.664389213115483e-08	1.096466476196407e-07	1.534513307222566e-08	-5.046225344619953e-08	7.472566052611473e-08	-3.166613474491271e-08
1.08	-0.1514755565240456	-0.09209829782528871	0.7331795246539299	1.232214291797395	-0.3274279128163025	-0.01184925760319919	-0.9585819603471254	1.139345183021608	1.139345183021734	-0.07921887864804956	-0.1744309514490304	0.1358779792533963	0.01011899726732717	0.1795588586886762	0.04248983931409528	0.1666732027699151	-0.658375233745199	0.0004807125415986756	-0.1720963504886286	0.04426569539397644	-0.5019583748349129	-0.5019583748349027	-0.0213601159817152	0.001878819747987267	-0.05347617497153739	-0.01615643054473813	-0.3991583375320518	0.01533469046991557	-0.005380021663196898	-0.2905794516760658	0.1113715809288402	0.04553709375739007	0.4401566918530125	-14.27858316347181	-17.33258224191431	2.372830268069904	2.007011590592302	-787.552890731464	-72.71692464948184	-2.255777226729324	0.8843913786158912	0.2872331512620048	1.170838129799191	-4.436930353304827	0.03465213736819971	-1.371665660400566	0.955476430252681	-4.020867656887035	-4.020867656887031	-0.1783936096162288	-0.01188894152244908	-0.721625441666036	-0.1994303494411009	-3.616526722610776e-08	-8.302086774992347e-08	1.119606115479129e-07	1.643219743976976e-08	-5.401719041904132e-08	7.373208596710996e-08	-3.276955555252227e-08
